<?xml version="1.0" encoding="UTF-8" standalone="no"?>
<svg
   xmlns:dc="http://purl.org/dc/elements/1.1/"
   xmlns:cc="http://creativecommons.org/ns#"
   xmlns:rdf="http://www.w3.org/1999/02/22-rdf-syntax-ns#"
   xmlns:svg="http://www.w3.org/2000/svg"
   xmlns="http://www.w3.org/2000/svg"
   viewBox="0 0 1065 213"
   xml:space="preserve"
   id="svg2"
   version="1.1"><metadata
     id="metadata8"><rdf:RDF><cc:Work
         rdf:about=""><dc:format>image/svg+xml</dc:format><dc:type
           rdf:resource="http://purl.org/dc/dcmitype/StillImage" /></cc:Work></rdf:RDF></metadata><defs
     id="defs6"><clipPath
       id="clipPath22"
       clipPathUnits="userSpaceOnUse"><path
         id="path20"
         d="M 0,159.492 H 627.278 V 0 H 0 Z" /></clipPath></defs><g
     transform="matrix(1.3333333,0,0,-1.3333333,0,212.656)"
     id="g10"><g
       transform="translate(328.9859,109.1227)"
       id="g12"><path
         id="path14"
         style="fill:#191919;fill-opacity:1;fill-rule:nonzero;stroke:none"
         d="M 0,0 -3.177,9.771 H -4.142 L -7.318,0 Z M 9.368,-11.137 H 3.578 L 1.607,-4.985 H -8.926 l -1.97,-6.152 h -5.791 l 9.49,28.145 h 7.076 z" /></g><g
       id="g16"><g
         clip-path="url(#clipPath22)"
         id="g18"><g
           transform="translate(354.1988,118.2901)"
           id="g24"><path
             id="path26"
             style="fill:#191919;fill-opacity:1;fill-rule:nonzero;stroke:none"
             d="m 0,0 v -5.146 c -0.402,0.08 -1.086,0.16 -1.77,0.16 -2.814,0 -5.749,-1.447 -5.749,-5.146 v -10.173 h -5.347 v 20.104 h 4.101 l 0.724,-2.212 h 0.643 C -6.514,-1.528 -4.543,0 -1.246,0 Z" /></g><g
           transform="translate(372.4136,99.4733)"
           id="g28"><path
             id="path30"
             style="fill:#191919;fill-opacity:1;fill-rule:nonzero;stroke:none"
             d="m 0,0 c 0,0 -1.688,-1.689 -4.784,-1.689 -3.861,0 -7.197,2.614 -7.197,6.674 v 9.328 h -4.021 v 3.941 h 2.01 c 1.367,0 2.292,0.925 2.292,2.372 v 4.02 h 4.865 v -6.03 H -1.77 V 14.313 H -6.835 V 5.307 c 0,-1.367 1.126,-2.412 2.573,-2.412 1.206,0 2.332,0.683 2.332,0.683 z" /></g><g
           transform="translate(381.9859,114.0279)"
           id="g32"><path
             id="path34"
             style="fill:#191919;fill-opacity:1;fill-rule:nonzero;stroke:none"
             d="m 0,0 c -1.688,0 -2.412,-0.844 -2.412,-1.688 0,-1.368 1.809,-1.77 3.016,-2.011 3.578,-0.764 7.197,-1.849 7.197,-6.112 0,-4.141 -3.418,-6.433 -7.56,-6.433 -4.623,0 -8.202,2.815 -8.443,7.077 h 4.945 c 0.121,-1.207 0.925,-2.774 3.378,-2.774 2.051,0 2.533,1.085 2.533,1.93 0,1.487 -1.407,1.929 -2.774,2.251 -2.372,0.523 -7.479,1.488 -7.479,6.072 0,3.939 3.78,5.95 7.68,5.95 4.503,0 7.479,-2.734 7.72,-6.112 H 2.855 C 2.694,-1.166 2.051,0 0,0" /></g><g
           transform="translate(416.0845,106.4288)"
           id="g36"><path
             id="path38"
             style="fill:#191919;fill-opacity:1;fill-rule:nonzero;stroke:none"
             d="M 0,0 V 0.402 C -3.658,0 -7.277,-0.442 -7.277,-2.533 -7.277,-5.589 -0.321,-5.348 0,0 m 7.318,-4.583 v -3.86 H 6.111 c -2.331,0 -3.98,0.844 -4.663,2.573 -1.207,-1.649 -3.217,-2.775 -6.353,-2.775 -4.543,0 -7.438,2.333 -7.438,5.951 0,6.273 8.564,6.836 12.424,7.036 C 0,6.674 -1.286,7.519 -3.337,7.519 -6.191,7.519 -6.393,5.79 -6.393,5.79 h -5.025 c 0.361,3.578 3.297,6.071 8.202,6.071 4.784,0 8.162,-2.372 8.162,-8.202 v -5.347 c 0,-2.333 0.844,-2.895 2.372,-2.895" /></g><g
           transform="translate(445.6793,108.8815)"
           id="g40"><path
             id="path42"
             style="fill:#191919;fill-opacity:1;fill-rule:nonzero;stroke:none"
             d="m 0,0 v -10.896 h -5.348 v 9.69 c 0,0.684 0.483,5.749 -3.378,5.951 -1.889,0.12 -5.266,-0.925 -5.266,-6.192 v -9.449 H -19.3 V 9.208 h 4.102 l 0.682,-2.453 h 0.684 c 0.845,1.005 2.734,2.654 6.112,2.654 C -2.533,9.409 0,5.549 0,0" /></g><g
           transform="translate(463.6949,108.0372)"
           id="g44"><path
             id="path46"
             style="fill:#191919;fill-opacity:1;fill-rule:nonzero;stroke:none"
             d="m 0,0 c 0,3.337 -1.81,5.307 -4.423,5.307 -2.453,0 -4.905,-1.769 -4.905,-5.307 0,-3.538 2.452,-5.307 4.905,-5.307 C -1.81,-5.307 0,-3.337 0,0 m 5.025,18.495 v -28.547 h -3.94 l -0.563,1.93 h -0.603 c -1.246,-1.367 -2.935,-2.131 -5.106,-2.131 -5.106,0 -9.368,4.182 -9.368,10.253 0,6.071 4.262,10.253 9.368,10.253 2.091,0 3.9,-0.724 5.187,-2.171 v 10.413 z" /></g><g
           transform="translate(336.6646,84.9376)"
           id="g48"><path
             id="path50"
             style="fill:#191919;fill-opacity:1;fill-rule:nonzero;stroke:none"
             d="m 0,0 v -28.145 h -5.428 v 11.7 h -11.097 v -11.7 h -5.428 V 0 h 5.428 v -11.338 h 11.097 l 0,11.338 z" /></g><g
           transform="translate(359.9879,76.8961)"
           id="g52"><path
             id="path54"
             style="fill:#191919;fill-opacity:1;fill-rule:nonzero;stroke:none"
             d="m 0,0 v -20.104 h -4.021 l -0.723,2.252 h -0.523 c -0.804,-1.005 -2.573,-2.453 -5.87,-2.453 -5.347,0 -8.082,3.78 -8.082,9.409 V 0 h 5.468 v -9.689 c 0,-2.494 0.201,-5.952 3.659,-5.952 1.77,0 4.664,0.925 4.664,6.193 l 0,9.448 z" /></g><g
           transform="translate(394.7691,67.6891)"
           id="g56"><path
             id="path58"
             style="fill:#191919;fill-opacity:1;fill-rule:nonzero;stroke:none"
             d="m 0,0 v -10.896 h -5.347 v 9.689 c 0,2.774 0.282,6.272 -3.418,5.951 -0.964,-0.08 -3.619,-0.523 -3.619,-6.192 v -9.448 h -5.306 v 9.689 c 0,2.774 0.281,6.272 -3.418,5.951 -0.965,-0.08 -3.619,-0.523 -3.619,-6.192 v -9.448 h -5.307 V 9.207 h 4.101 l 0.603,-2.171 h 0.643 c 0.764,1.005 2.373,2.332 4.866,2.372 2.251,0.04 4.181,-1.005 5.508,-2.774 h 0.603 c 1.005,1.246 2.855,2.774 6.111,2.814 C -2.372,9.488 0,5.588 0,0" /></g><g
           transform="translate(410.5757,65.2359)"
           id="g60"><path
             id="path62"
             style="fill:#191919;fill-opacity:1;fill-rule:nonzero;stroke:none"
             d="M 0,0 V 0.402 C -3.658,0 -7.277,-0.442 -7.277,-2.533 -7.277,-5.589 -0.321,-5.348 0,0 M 7.318,-4.584 V -8.443 H 6.111 c -2.331,0 -3.98,0.844 -4.663,2.573 -1.207,-1.649 -3.217,-2.775 -6.353,-2.775 -4.543,0 -7.438,2.333 -7.438,5.952 0,6.271 8.564,6.835 12.424,7.036 C 0,6.674 -1.286,7.519 -3.337,7.519 -6.191,7.519 -6.393,5.79 -6.393,5.79 h -5.025 c 0.361,3.578 3.297,6.071 8.202,6.071 4.784,0 8.161,-2.372 8.161,-8.202 v -5.347 c 0,-2.333 0.845,-2.896 2.373,-2.896" /></g><g
           transform="translate(440.1714,67.6891)"
           id="g64"><path
             id="path66"
             style="fill:#191919;fill-opacity:1;fill-rule:nonzero;stroke:none"
             d="m 0,0 v -10.896 h -5.348 v 9.689 c 0,0.684 0.483,5.75 -3.378,5.951 -1.889,0.121 -5.266,-0.925 -5.266,-6.192 v -9.448 H -19.3 V 9.207 h 4.102 l 0.682,-2.453 h 0.684 c 0.845,1.006 2.734,2.654 6.112,2.654 C -2.533,9.408 0,5.548 0,0" /></g><path
           id="path68"
           style="fill:#191919;fill-opacity:1;fill-rule:nonzero;stroke:none"
           d="m 449.542,56.793 h -5.146 v 20.104 h 5.146 z m -6.032,25.732 c 0,1.93 1.569,3.417 3.458,3.417 1.85,0 3.377,-1.487 3.377,-3.417 0,-1.809 -1.527,-3.377 -3.377,-3.377 -1.889,0 -3.458,1.568 -3.458,3.377" /><g
           transform="translate(468.399,58.2799)"
           id="g70"><path
             id="path72"
             style="fill:#191919;fill-opacity:1;fill-rule:nonzero;stroke:none"
             d="m 0,0 c 0,0 -1.688,-1.688 -4.784,-1.688 -3.861,0 -7.197,2.613 -7.197,6.674 v 9.328 h -4.021 v 3.94 h 2.01 c 1.367,0 2.292,0.925 2.292,2.372 v 4.021 h 4.865 V 18.616 H -1.77 V 14.314 H -6.835 V 5.308 c 0,-1.368 1.126,-2.412 2.573,-2.412 1.206,0 2.332,0.683 2.332,0.683 z" /></g><path
           id="path74"
           style="fill:#191919;fill-opacity:1;fill-rule:nonzero;stroke:none"
           d="m 475.76,56.793 h -5.146 v 20.104 h 5.146 z m -6.031,25.732 c 0,1.93 1.568,3.417 3.458,3.417 1.85,0 3.377,-1.487 3.377,-3.417 0,-1.809 -1.527,-3.377 -3.377,-3.377 -1.89,0 -3.458,1.568 -3.458,3.377" /><g
           transform="translate(484.8882,69.3775)"
           id="g76"><path
             id="path78"
             style="fill:#191919;fill-opacity:1;fill-rule:nonzero;stroke:none"
             d="M 0,0 H 9.046 C 8.443,2.372 6.795,3.337 4.784,3.337 2.573,3.337 0.804,2.09 0,0 M 14.354,-4.062 H -0.322 c 0.603,-3.055 3.095,-4.18 5.267,-4.18 2.734,0 3.9,1.688 3.9,1.688 h 5.066 c -1.527,-4.02 -5.186,-6.232 -9.127,-6.232 -5.428,0 -10.172,4.141 -10.172,10.414 0,6.232 4.704,10.092 10.011,10.092 5.147,0 10.374,-3.579 9.731,-11.782" /></g><g
           transform="translate(510.2203,72.8351)"
           id="g80"><path
             id="path82"
             style="fill:#191919;fill-opacity:1;fill-rule:nonzero;stroke:none"
             d="m 0,0 c -1.688,0 -2.412,-0.844 -2.412,-1.688 0,-1.368 1.809,-1.77 3.016,-2.011 3.578,-0.763 7.197,-1.849 7.197,-6.111 0,-4.142 -3.418,-6.434 -7.56,-6.434 -4.623,0 -8.202,2.815 -8.443,7.077 h 4.945 c 0.121,-1.207 0.925,-2.774 3.378,-2.774 2.051,0 2.533,1.085 2.533,1.93 0,1.487 -1.407,1.929 -2.774,2.251 -2.372,0.523 -7.479,1.488 -7.479,6.072 0,3.939 3.78,5.95 7.68,5.95 4.503,0 7.479,-2.734 7.72,-6.112 H 2.855 C 2.694,-1.166 2.051,0 0,0" /></g><g
           transform="translate(319.8184,30.9185)"
           id="g84"><path
             id="path86"
             style="fill:#191919;fill-opacity:1;fill-rule:nonzero;stroke:none"
             d="m 0,0 h 4.423 c 2.291,0 3.819,1.77 3.819,4.102 0,2.332 -1.568,3.699 -3.819,3.699 H 0 Z M 9.328,-15.318 3.337,-4.985 H 0 v -10.333 h -5.106 v 28.144 h 9.931 c 4.624,0 8.724,-3.096 8.724,-8.644 0,-3.86 -2.171,-6.795 -5.065,-8.203 l 6.795,-11.297 z" /></g><g
           transform="translate(341.2916,28.1852)"
           id="g88"><path
             id="path90"
             style="fill:#191919;fill-opacity:1;fill-rule:nonzero;stroke:none"
             d="M 0,0 H 9.046 C 8.443,2.372 6.795,3.337 4.784,3.337 2.573,3.337 0.804,2.091 0,0 M 14.354,-4.062 H -0.322 c 0.603,-3.055 3.095,-4.18 5.267,-4.18 2.734,0 3.9,1.688 3.9,1.688 h 5.066 c -1.527,-4.02 -5.186,-6.232 -9.127,-6.232 -5.428,0 -10.172,4.141 -10.172,10.414 0,6.231 4.704,10.092 10.011,10.092 5.147,0 10.374,-3.579 9.731,-11.782" /></g><g
           transform="translate(366.6236,31.6432)"
           id="g92"><path
             id="path94"
             style="fill:#191919;fill-opacity:1;fill-rule:nonzero;stroke:none"
             d="m 0,0 c -1.688,0 -2.412,-0.845 -2.412,-1.689 0,-1.367 1.809,-1.769 3.016,-2.01 3.578,-0.765 7.197,-1.85 7.197,-6.112 0,-4.141 -3.418,-6.433 -7.56,-6.433 -4.623,0 -8.202,2.814 -8.443,7.076 h 4.945 c 0.121,-1.206 0.925,-2.773 3.378,-2.773 2.051,0 2.533,1.085 2.533,1.929 0,1.488 -1.407,1.93 -2.774,2.251 -2.372,0.524 -7.479,1.489 -7.479,6.072 0,3.94 3.78,5.951 7.68,5.951 4.503,0 7.479,-2.735 7.72,-6.112 H 2.855 C 2.694,-1.166 2.051,0 0,0" /></g><g
           transform="translate(382.3082,28.1852)"
           id="g96"><path
             id="path98"
             style="fill:#191919;fill-opacity:1;fill-rule:nonzero;stroke:none"
             d="M 0,0 H 9.046 C 8.443,2.372 6.795,3.337 4.784,3.337 2.573,3.337 0.804,2.091 0,0 M 14.354,-4.062 H -0.322 c 0.603,-3.055 3.095,-4.18 5.267,-4.18 2.734,0 3.9,1.688 3.9,1.688 h 5.066 c -1.527,-4.02 -5.186,-6.232 -9.127,-6.232 -5.428,0 -10.172,4.141 -10.172,10.414 0,6.231 4.704,10.092 10.011,10.092 5.147,0 10.374,-3.579 9.731,-11.782" /></g><g
           transform="translate(411.6617,24.0435)"
           id="g100"><path
             id="path102"
             style="fill:#191919;fill-opacity:1;fill-rule:nonzero;stroke:none"
             d="M 0,0 V 0.402 C -3.658,0 -7.277,-0.442 -7.277,-2.533 -7.277,-5.589 -0.321,-5.348 0,0 m 7.318,-4.583 v -3.86 H 6.111 c -2.331,0 -3.98,0.844 -4.663,2.573 -1.207,-1.649 -3.217,-2.775 -6.353,-2.775 -4.543,0 -7.438,2.333 -7.438,5.952 0,6.271 8.564,6.835 12.424,7.036 C 0,6.675 -1.286,7.519 -3.337,7.519 -6.191,7.519 -6.393,5.79 -6.393,5.79 h -5.025 c 0.361,3.578 3.297,6.071 8.202,6.071 4.784,0 8.161,-2.372 8.161,-8.202 v -5.347 c 0,-2.333 0.845,-2.895 2.373,-2.895" /></g><g
           transform="translate(434.8238,35.9049)"
           id="g104"><path
             id="path106"
             style="fill:#191919;fill-opacity:1;fill-rule:nonzero;stroke:none"
             d="m 0,0 v -5.146 c -0.402,0.08 -1.086,0.16 -1.77,0.16 -2.814,0 -5.749,-1.448 -5.749,-5.147 v -10.172 h -5.347 v 20.104 h 4.101 l 0.724,-2.212 h 0.643 C -6.514,-1.528 -4.543,0 -1.246,0 Z" /></g><g
           transform="translate(446.2037,15.399)"
           id="g108"><path
             id="path110"
             style="fill:#191919;fill-opacity:1;fill-rule:nonzero;stroke:none"
             d="m 0,0 c -5.589,0 -10.172,4.303 -10.172,10.213 0,5.99 4.744,10.293 10.373,10.293 4.584,0 8.484,-2.855 9.61,-7.56 H 4.343 c -0.845,1.65 -2.332,2.695 -4.263,2.695 -2.814,0 -5.065,-2.252 -5.065,-5.388 0,-3.136 2.251,-5.388 5.065,-5.388 1.81,0 3.217,0.925 4.102,2.412 H 9.69 C 8.403,2.493 4.262,0 0,0" /></g><g
           transform="translate(478.4937,26.4967)"
           id="g112"><path
             id="path114"
             style="fill:#191919;fill-opacity:1;fill-rule:nonzero;stroke:none"
             d="m 0,0 v -10.896 h -5.388 v 9.689 c 0,1.971 0.323,5.951 -3.297,5.951 -1.768,0 -5.186,-0.925 -5.186,-6.192 v -9.448 h -5.388 V 17.65 h 5.107 V 7.116 h 0.683 c 0.965,1.005 2.815,2.292 5.79,2.292 C -2.492,9.408 0,5.548 0,0" /></g><g
           transform="translate(515.5679,24.0435)"
           id="g116"><path
             id="path118"
             style="fill:#191919;fill-opacity:1;fill-rule:nonzero;stroke:none"
             d="m 0,0 c -1.608,-5.388 -6.111,-8.645 -11.539,-8.645 -7.358,0 -12.705,6.032 -12.705,14.274 0,8.242 5.307,14.273 12.665,14.273 5.388,0 9.971,-3.256 11.579,-8.644 h -6.071 c -1.045,2.252 -2.935,3.337 -5.428,3.337 -4.584,0 -7.197,-3.739 -7.197,-8.966 0,-5.227 2.654,-8.966 7.277,-8.966 2.493,0 4.303,1.085 5.348,3.337 z" /></g><g
           transform="translate(533.0601,25.6519)"
           id="g120"><path
             id="path122"
             style="fill:#191919;fill-opacity:1;fill-rule:nonzero;stroke:none"
             d="m 0,0 c 0,3.136 -1.85,5.589 -4.905,5.589 -3.056,0 -5.107,-2.453 -5.107,-5.589 0,-3.136 2.051,-5.589 5.107,-5.589 C -1.85,-5.589 0,-3.136 0,0 m -15.278,-0.04 c 0,6.433 4.985,10.293 10.373,10.293 5.427,0 10.172,-3.9 10.172,-10.213 0,-6.393 -4.906,-10.293 -10.333,-10.293 -5.468,0 -10.212,3.9 -10.212,10.213" /></g><g
           transform="translate(561.0084,35.7037)"
           id="g124"><path
             id="path126"
             style="fill:#191919;fill-opacity:1;fill-rule:nonzero;stroke:none"
             d="m 0,0 v -20.104 h -4.021 l -0.723,2.252 h -0.523 c -0.804,-1.005 -2.573,-2.453 -5.87,-2.453 -5.347,0 -8.082,3.78 -8.082,9.409 V 0 h 5.468 v -9.689 c 0,-2.494 0.201,-5.952 3.659,-5.952 1.77,0 4.664,0.925 4.664,6.193 l 0,9.448 z" /></g><g
           transform="translate(585.0552,26.4967)"
           id="g128"><path
             id="path130"
             style="fill:#191919;fill-opacity:1;fill-rule:nonzero;stroke:none"
             d="m 0,0 v -10.896 h -5.348 v 9.689 c 0,0.684 0.483,5.75 -3.378,5.951 -1.889,0.12 -5.266,-0.925 -5.266,-6.192 v -9.448 H -19.3 V 9.207 h 4.102 l 0.682,-2.453 h 0.684 c 0.845,1.006 2.734,2.654 6.112,2.654 C -2.533,9.408 0,5.548 0,0" /></g><g
           transform="translate(598.6871,15.399)"
           id="g132"><path
             id="path134"
             style="fill:#191919;fill-opacity:1;fill-rule:nonzero;stroke:none"
             d="m 0,0 c -5.589,0 -10.172,4.303 -10.172,10.213 0,5.99 4.744,10.293 10.373,10.293 4.584,0 8.484,-2.855 9.61,-7.56 H 4.343 c -0.845,1.65 -2.332,2.695 -4.263,2.695 -2.814,0 -5.065,-2.252 -5.065,-5.388 0,-3.136 2.251,-5.388 5.065,-5.388 1.81,0 3.217,0.925 4.102,2.412 H 9.689 C 8.403,2.493 4.262,0 0,0" /></g><path
           id="path136"
           style="fill:#191919;fill-opacity:1;fill-rule:nonzero;stroke:none"
           d="m 617.628,15.6 h -5.146 v 20.104 h 5.146 z m -6.032,25.733 c 0,1.929 1.569,3.418 3.458,3.418 1.85,0 3.377,-1.489 3.377,-3.418 0,-1.81 -1.527,-3.377 -3.377,-3.377 -1.889,0 -3.458,1.567 -3.458,3.377" /><path
           id="path138"
           style="fill:#191919;fill-opacity:1;fill-rule:nonzero;stroke:none"
           d="m 627.278,15.6 h -5.227 v 28.547 h 5.227 z" /><path
           id="path140"
           style="fill:#191919;fill-opacity:1;fill-rule:nonzero;stroke:none"
           d="M 141.732,0 H 0 v 141.732 h 141.732 z" /><g
           transform="translate(109.6084,70.8663)"
           id="g142"><path
             id="path144"
             style="fill:#f6d13a;fill-opacity:1;fill-rule:nonzero;stroke:none"
             d="m 0,0 h -22.216 v 23.724 z m -19.371,-44.105 h -19.371 v -7.745 l -13.635,17.869 c 10.381,1.911 15.742,7.279 15.742,16.627 0,2.307 -0.329,4.365 -0.977,6.19 h 18.241 z m -58.114,32.941 h 15.121 c 6.216,0 8.735,-2.409 8.735,-6.19 0,-3.782 -2.519,-6.269 -8.735,-6.269 h -15.121 z m 38.743,28.072 V -8.733 c -3.519,5.941 -11.612,8.701 -23.622,8.731 10.717,1.088 20.625,6.871 23.622,16.91 m 55.268,38.36 H 0 L -22.216,31.61 V 55.268 H -54.32 V 23.862 c 0,-6.724 -4.978,-10.627 -11.582,-10.627 -6.604,0 -11.583,3.903 -11.583,10.627 V 55.268 H -94.011 V 23.622 C -94.011,9.449 -82.568,1.318 -69.66,0 h -24.351 v -55.268 h 16.526 v 20.482 h 7.219 l 15.271,-20.482 h 71.521 v 11.163 H -2.845 v 32.941 H 16.526 V 3.417 L -7.162,27.672 16.526,51.85 Z" /></g><g
           transform="translate(271.5045,141.7227)"
           id="g146"><path
             id="path148"
             style="fill:#191919;fill-opacity:0.5;fill-rule:nonzero;stroke:none"
             d="m 0,0 c 2.021,5.62 3.613,11.552 4.817,17.77 h -134.588 l -0.001,-159.493 h 68.06 l -48.864,64.041 C -52.169,-66.929 -14.951,-41.586 0,0" /></g><g
           transform="translate(283.4639,141.7227)"
           id="g150"><path
             id="path152"
             style="fill:#191919;fill-opacity:0.3;fill-rule:nonzero;stroke:none"
             d="m 0,0 h -11.959 c -14.952,-41.586 -52.169,-66.929 -110.577,-77.682 l 48.865,-64.041 H 0 Z" /></g></g></g></g></svg>