<?xml version="1.0" encoding="UTF-8" standalone="no"?>
<svg
   xmlns:dc="http://purl.org/dc/elements/1.1/"
   xmlns:cc="http://creativecommons.org/ns#"
   xmlns:rdf="http://www.w3.org/1999/02/22-rdf-syntax-ns#"
   xmlns:svg="http://www.w3.org/2000/svg"
   xmlns="http://www.w3.org/2000/svg"
   viewBox="0 0 1065 213"
   xml:space="preserve"
   id="svg2"
   version="1.1"><metadata
     id="metadata8"><rdf:RDF><cc:Work
         rdf:about=""><dc:format>image/svg+xml</dc:format><dc:type
           rdf:resource="http://purl.org/dc/dcmitype/StillImage" /></cc:Work></rdf:RDF></metadata><defs
     id="defs6"><clipPath
       id="clipPath22"
       clipPathUnits="userSpaceOnUse"><path
         id="path20"
         d="M 0,159.492 H 637.489 V 0 H 0 Z" /></clipPath></defs><g
     transform="matrix(1.3333333,0,0,-1.3333333,0,212.656)"
     id="g10"><g
       transform="translate(333.649,103.0113)"
       id="g12"><path
         id="path14"
         style="fill:#191919;fill-opacity:1;fill-rule:nonzero;stroke:none"
         d="M 0,0 V -5.026 H -18.937 V 23.119 H -0.401 V 18.093 H -13.67 V 11.74 H -1.607 V 6.714 H -13.67 V 0 Z" /></g><g
       id="g16"><g
         clip-path="url(#clipPath22)"
         id="g18"><g
           transform="translate(356.8521,108.8815)"
           id="g24"><path
             id="path26"
             style="fill:#191919;fill-opacity:1;fill-rule:nonzero;stroke:none"
             d="m 0,0 v -10.896 h -5.348 v 9.69 c 0,0.684 0.483,5.749 -3.378,5.951 -1.889,0.12 -5.266,-0.925 -5.266,-6.192 v -9.449 H -19.3 V 9.208 h 4.102 l 0.682,-2.453 h 0.684 c 0.845,1.005 2.734,2.654 6.112,2.654 C -2.533,9.409 0,5.549 0,0" /></g><g
           transform="translate(365.7388,111.5353)"
           id="g28"><path
             id="path30"
             style="fill:#191919;fill-opacity:1;fill-rule:nonzero;stroke:none"
             d="M 0,0 C 0,-1.528 1.086,-2.654 3.418,-2.654 5.71,-2.654 6.835,-1.528 6.835,0 6.835,1.488 5.71,2.533 3.418,2.533 1.126,2.533 0,1.528 0,0 m 7.6,-14.997 c 0,1.085 -0.885,1.93 -3.137,1.93 -1.126,0 -2.693,0 -3.859,0.04 l -1.368,-1.448 c -0.241,-1.005 0.764,-2.653 4.302,-2.653 2.613,0 4.062,0.844 4.062,2.131 m 4.945,-0.161 c -0.161,-4.544 -4.303,-6.634 -9.087,-6.634 -6.232,0 -9.811,3.578 -8.886,7.92 l 2.292,1.85 c -1.287,0.804 -2.131,2.051 -2.131,3.538 0,1.649 1.045,2.815 2.493,3.579 -1.368,1.246 -2.05,2.935 -2.05,4.824 0,3.86 2.974,6.876 8.041,6.876 1.769,0 3.337,-0.362 4.584,-1.005 2.171,1.005 3.417,2.613 3.417,2.613 l 2.493,-3.337 c 0,0 -1.367,-0.925 -3.217,-1.488 0.764,-1.045 1.166,-2.291 1.166,-3.619 0,-3.819 -3.498,-6.875 -8.564,-6.875 -1.045,0 -2.01,0.121 -2.855,0.362 -0.321,-0.201 -0.602,-0.523 -0.602,-1.005 0,-1.447 2.211,-1.206 3.578,-1.206 h 2.814 c 4.423,0 6.634,-3.016 6.514,-6.393" /></g><path
           id="path32"
           style="fill:#191919;fill-opacity:1;fill-rule:nonzero;stroke:none"
           d="m 387.776,97.985 h -5.146 v 20.104 h 5.146 z m -6.031,25.733 c 0,1.93 1.568,3.417 3.458,3.417 1.849,0 3.377,-1.487 3.377,-3.417 0,-1.809 -1.528,-3.378 -3.377,-3.378 -1.89,0 -3.458,1.569 -3.458,3.378" /><g
           transform="translate(412.0621,108.8815)"
           id="g34"><path
             id="path36"
             style="fill:#191919;fill-opacity:1;fill-rule:nonzero;stroke:none"
             d="m 0,0 v -10.896 h -5.348 v 9.69 c 0,0.684 0.483,5.749 -3.378,5.951 -1.889,0.12 -5.266,-0.925 -5.266,-6.192 v -9.449 H -19.3 V 9.208 h 4.102 l 0.682,-2.453 h 0.684 c 0.845,1.005 2.734,2.654 6.112,2.654 C -2.533,9.409 0,5.549 0,0" /></g><g
           transform="translate(420.9097,110.5704)"
           id="g38"><path
             id="path40"
             style="fill:#191919;fill-opacity:1;fill-rule:nonzero;stroke:none"
             d="M 0,0 H 9.046 C 8.443,2.372 6.795,3.337 4.784,3.337 2.573,3.337 0.804,2.09 0,0 M 14.354,-4.061 H -0.322 c 0.603,-3.056 3.095,-4.182 5.267,-4.182 2.734,0 3.9,1.689 3.9,1.689 h 5.066 c -1.527,-4.021 -5.186,-6.232 -9.127,-6.232 -5.428,0 -10.172,4.141 -10.172,10.413 0,6.233 4.704,10.093 10.011,10.093 5.147,0 10.374,-3.579 9.731,-11.781" /></g><g
           transform="translate(443.4693,110.5704)"
           id="g42"><path
             id="path44"
             style="fill:#191919;fill-opacity:1;fill-rule:nonzero;stroke:none"
             d="M 0,0 H 9.046 C 8.443,2.372 6.795,3.337 4.784,3.337 2.573,3.337 0.804,2.09 0,0 M 14.354,-4.061 H -0.322 c 0.603,-3.056 3.095,-4.182 5.267,-4.182 2.734,0 3.9,1.689 3.9,1.689 h 5.066 c -1.527,-4.021 -5.186,-6.232 -9.127,-6.232 -5.428,0 -10.172,4.141 -10.172,10.413 0,6.233 4.704,10.093 10.011,10.093 5.147,0 10.374,-3.579 9.731,-11.781" /></g><g
           transform="translate(474.15,118.2901)"
           id="g46"><path
             id="path48"
             style="fill:#191919;fill-opacity:1;fill-rule:nonzero;stroke:none"
             d="m 0,0 v -5.146 c -0.402,0.08 -1.086,0.16 -1.77,0.16 -2.814,0 -5.749,-1.447 -5.749,-5.146 v -10.173 h -5.347 v 20.104 h 4.101 l 0.724,-2.212 h 0.643 C -6.514,-1.528 -4.543,0 -1.246,0 Z" /></g><path
           id="path50"
           style="fill:#191919;fill-opacity:1;fill-rule:nonzero;stroke:none"
           d="m 482.797,97.985 h -5.146 v 20.104 h 5.146 z m -6.031,25.733 c 0,1.93 1.569,3.417 3.458,3.417 1.85,0 3.377,-1.487 3.377,-3.417 0,-1.809 -1.527,-3.378 -3.377,-3.378 -1.889,0 -3.458,1.569 -3.458,3.378" /><g
           transform="translate(507.0836,108.8815)"
           id="g52"><path
             id="path54"
             style="fill:#191919;fill-opacity:1;fill-rule:nonzero;stroke:none"
             d="m 0,0 v -10.896 h -5.348 v 9.69 c 0,0.684 0.483,5.749 -3.378,5.951 -1.889,0.12 -5.266,-0.925 -5.266,-6.192 v -9.449 H -19.3 V 9.208 h 4.102 l 0.682,-2.453 h 0.684 c 0.845,1.005 2.734,2.654 6.112,2.654 C -2.533,9.409 0,5.549 0,0" /></g><g
           transform="translate(515.9703,111.5353)"
           id="g56"><path
             id="path58"
             style="fill:#191919;fill-opacity:1;fill-rule:nonzero;stroke:none"
             d="M 0,0 C 0,-1.528 1.086,-2.654 3.418,-2.654 5.71,-2.654 6.835,-1.528 6.835,0 6.835,1.488 5.71,2.533 3.418,2.533 1.126,2.533 0,1.528 0,0 m 7.6,-14.997 c 0,1.085 -0.885,1.93 -3.137,1.93 -1.126,0 -2.693,0 -3.859,0.04 l -1.368,-1.448 c -0.241,-1.005 0.764,-2.653 4.302,-2.653 2.614,0 4.062,0.844 4.062,2.131 m 4.945,-0.161 c -0.161,-4.544 -4.303,-6.634 -9.087,-6.634 -6.232,0 -9.811,3.578 -8.886,7.92 l 2.292,1.85 c -1.287,0.804 -2.131,2.051 -2.131,3.538 0,1.649 1.045,2.815 2.493,3.579 -1.367,1.246 -2.05,2.935 -2.05,4.824 0,3.86 2.974,6.876 8.041,6.876 1.769,0 3.337,-0.362 4.584,-1.005 2.171,1.005 3.417,2.613 3.417,2.613 l 2.493,-3.337 c 0,0 -1.367,-0.925 -3.217,-1.488 0.764,-1.045 1.166,-2.291 1.166,-3.619 0,-3.819 -3.498,-6.875 -8.564,-6.875 -1.045,0 -2.01,0.121 -2.855,0.362 -0.321,-0.201 -0.602,-0.523 -0.602,-1.005 0,-1.447 2.211,-1.206 3.578,-1.206 h 2.814 c 4.423,0 6.634,-3.016 6.514,-6.393" /></g><g
           transform="translate(555.3775,106.4288)"
           id="g60"><path
             id="path62"
             style="fill:#191919;fill-opacity:1;fill-rule:nonzero;stroke:none"
             d="M 0,0 V 0.402 C -3.658,0 -7.277,-0.442 -7.277,-2.533 -7.277,-5.589 -0.321,-5.348 0,0 m 7.318,-4.583 v -3.86 H 6.111 c -2.331,0 -3.98,0.844 -4.663,2.573 -1.207,-1.649 -3.217,-2.775 -6.353,-2.775 -4.543,0 -7.438,2.333 -7.438,5.951 0,6.273 8.564,6.836 12.424,7.036 C 0,6.674 -1.286,7.519 -3.337,7.519 -6.191,7.519 -6.393,5.79 -6.393,5.79 h -5.025 c 0.361,3.578 3.297,6.071 8.202,6.071 4.784,0 8.162,-2.372 8.162,-8.202 v -5.347 c 0,-2.333 0.844,-2.895 2.372,-2.895" /></g><g
           transform="translate(584.9722,108.8815)"
           id="g64"><path
             id="path66"
             style="fill:#191919;fill-opacity:1;fill-rule:nonzero;stroke:none"
             d="m 0,0 v -10.896 h -5.348 v 9.69 c 0,0.684 0.483,5.749 -3.378,5.951 -1.889,0.12 -5.266,-0.925 -5.266,-6.192 v -9.449 H -19.3 V 9.208 h 4.102 l 0.682,-2.453 h 0.684 c 0.845,1.005 2.734,2.654 6.112,2.654 C -2.533,9.409 0,5.549 0,0" /></g><g
           transform="translate(602.9869,108.0372)"
           id="g68"><path
             id="path70"
             style="fill:#191919;fill-opacity:1;fill-rule:nonzero;stroke:none"
             d="m 0,0 c 0,3.337 -1.81,5.307 -4.423,5.307 -2.453,0 -4.905,-1.769 -4.905,-5.307 0,-3.538 2.452,-5.307 4.905,-5.307 C -1.81,-5.307 0,-3.337 0,0 m 5.025,18.495 v -28.547 h -3.94 l -0.563,1.93 h -0.603 c -1.246,-1.367 -2.935,-2.131 -5.106,-2.131 -5.106,0 -9.368,4.182 -9.368,10.253 0,6.071 4.262,10.253 9.368,10.253 2.091,0 3.9,-0.724 5.187,-2.171 v 10.413 z" /></g><g
           transform="translate(328.8648,76.2931)"
           id="g72"><path
             id="path74"
             style="fill:#191919;fill-opacity:1;fill-rule:nonzero;stroke:none"
             d="m 0,0 c 0,2.372 -1.568,3.699 -3.82,3.699 h -5.226 v -7.8 H -3.82 C -1.528,-4.101 0,-2.332 0,0 m 5.308,0 c 0,-5.549 -4.102,-9.046 -8.725,-9.046 H -9.046 V -19.5 h -5.107 V 8.645 H -3.417 C 1.206,8.645 5.308,5.588 5.308,0" /></g><g
           transform="translate(357.2925,67.6891)"
           id="g76"><path
             id="path78"
             style="fill:#191919;fill-opacity:1;fill-rule:nonzero;stroke:none"
             d="m 0,0 v -10.896 h -5.388 v 9.689 c 0,1.971 0.323,5.951 -3.297,5.951 -1.768,0 -5.186,-0.925 -5.186,-6.192 v -9.448 h -5.388 V 17.65 h 5.107 V 7.116 h 0.683 c 0.965,1.006 2.815,2.292 5.79,2.292 C -2.492,9.408 0,5.548 0,0" /></g><g
           transform="translate(380.4947,76.8961)"
           id="g80"><path
             id="path82"
             style="fill:#191919;fill-opacity:1;fill-rule:nonzero;stroke:none"
             d="m 0,0 -6.996,-20.867 c -1.126,-3.338 -2.453,-7.479 -8.524,-7.479 -3.619,0 -5.508,1.448 -6.112,2.211 l 2.533,3.579 c 0.202,-0.201 1.448,-1.247 3.137,-1.247 1.689,0 2.815,0.684 3.257,2.051 l 0.562,1.648 h -2.694 L -21.752,0 h 5.589 l 5.065,-14.636 h 0.805 L -5.388,0 Z" /></g><g
           transform="translate(390.6295,72.8351)"
           id="g84"><path
             id="path86"
             style="fill:#191919;fill-opacity:1;fill-rule:nonzero;stroke:none"
             d="m 0,0 c -1.688,0 -2.412,-0.844 -2.412,-1.688 0,-1.368 1.809,-1.77 3.016,-2.011 3.578,-0.763 7.197,-1.849 7.197,-6.111 0,-4.142 -3.418,-6.434 -7.56,-6.434 -4.623,0 -8.202,2.815 -8.443,7.077 h 4.945 c 0.121,-1.207 0.925,-2.774 3.378,-2.774 2.051,0 2.533,1.085 2.533,1.93 0,1.487 -1.407,1.929 -2.774,2.251 -2.372,0.523 -7.479,1.488 -7.479,6.072 0,3.939 3.78,5.95 7.68,5.95 4.503,0 7.479,-2.734 7.72,-6.112 H 2.855 C 2.694,-1.166 2.051,0 0,0" /></g><path
           id="path88"
           style="fill:#191919;fill-opacity:1;fill-rule:nonzero;stroke:none"
           d="m 406.997,56.793 h -5.146 v 20.104 h 5.146 z m -6.032,25.732 c 0,1.93 1.569,3.417 3.458,3.417 1.85,0 3.377,-1.487 3.377,-3.417 0,-1.809 -1.527,-3.377 -3.377,-3.377 -1.889,0 -3.458,1.568 -3.458,3.377" /><g
           transform="translate(420.9088,56.5914)"
           id="g90"><path
             id="path92"
             style="fill:#191919;fill-opacity:1;fill-rule:nonzero;stroke:none"
             d="m 0,0 c -5.589,0 -10.172,4.303 -10.172,10.213 0,5.991 4.744,10.293 10.373,10.293 4.584,0 8.484,-2.855 9.61,-7.56 H 4.343 c -0.845,1.649 -2.332,2.695 -4.263,2.695 -2.814,0 -5.065,-2.252 -5.065,-5.388 0,-3.136 2.251,-5.388 5.065,-5.388 1.81,0 3.217,0.925 4.102,2.412 H 9.69 C 8.403,2.493 4.262,0 0,0" /></g><g
           transform="translate(445.8795,65.2359)"
           id="g94"><path
             id="path96"
             style="fill:#191919;fill-opacity:1;fill-rule:nonzero;stroke:none"
             d="M 0,0 V 0.402 C -3.658,0 -7.277,-0.442 -7.277,-2.533 -7.277,-5.589 -0.321,-5.348 0,0 M 7.318,-4.584 V -8.443 H 6.111 c -2.331,0 -3.98,0.844 -4.663,2.573 -1.207,-1.649 -3.217,-2.775 -6.353,-2.775 -4.543,0 -7.438,2.333 -7.438,5.952 0,6.271 8.564,6.835 12.424,7.036 C 0,6.674 -1.286,7.519 -3.337,7.519 -6.191,7.519 -6.393,5.79 -6.393,5.79 h -5.025 c 0.361,3.578 3.297,6.071 8.202,6.071 4.784,0 8.162,-2.372 8.162,-8.202 v -5.347 c 0,-2.333 0.844,-2.896 2.372,-2.896" /></g><path
           id="path98"
           style="fill:#191919;fill-opacity:1;fill-rule:nonzero;stroke:none"
           d="m 461.041,56.793 h -5.227 V 85.34 h 5.227 z" /><g
           transform="translate(485.5679,56.5914)"
           id="g100"><path
             id="path102"
             style="fill:#191919;fill-opacity:1;fill-rule:nonzero;stroke:none"
             d="m 0,0 c -6.151,0 -10.413,4.021 -10.413,9.288 h 5.226 C -4.704,5.79 -1.81,4.985 -0.04,4.985 c 1.367,0 4.101,0.484 4.101,3.097 0,2.372 -2.291,3.337 -4.583,4.222 -3.78,1.487 -9.127,3.297 -9.127,8.644 0,4.744 4.141,7.639 9.167,7.639 5.83,0 9.086,-3.9 9.086,-7.478 H 3.458 c -0.281,1.568 -2.011,2.573 -4.02,2.573 -1.931,0 -3.539,-0.965 -3.539,-2.734 0,-1.729 1.568,-2.412 4.302,-3.659 C 3.137,15.962 9.408,14.394 9.408,8.042 9.408,2.774 5.106,0 0,0" /></g><g
           transform="translate(507.6841,56.5914)"
           id="g104"><path
             id="path106"
             style="fill:#191919;fill-opacity:1;fill-rule:nonzero;stroke:none"
             d="m 0,0 c -5.589,0 -10.172,4.303 -10.172,10.213 0,5.991 4.744,10.293 10.373,10.293 4.584,0 8.484,-2.855 9.61,-7.56 H 4.343 c -0.845,1.649 -2.332,2.695 -4.263,2.695 -2.814,0 -5.065,-2.252 -5.065,-5.388 0,-3.136 2.251,-5.388 5.065,-5.388 1.81,0 3.217,0.925 4.102,2.412 H 9.69 C 8.403,2.493 4.262,0 0,0" /></g><path
           id="path108"
           style="fill:#191919;fill-opacity:1;fill-rule:nonzero;stroke:none"
           d="m 526.626,56.793 h -5.146 v 20.104 h 5.146 z m -6.032,25.732 c 0,1.93 1.569,3.417 3.458,3.417 1.85,0 3.377,-1.487 3.377,-3.417 0,-1.809 -1.527,-3.377 -3.377,-3.377 -1.889,0 -3.458,1.568 -3.458,3.377" /><g
           transform="translate(535.7535,69.3775)"
           id="g110"><path
             id="path112"
             style="fill:#191919;fill-opacity:1;fill-rule:nonzero;stroke:none"
             d="M 0,0 H 9.046 C 8.443,2.372 6.795,3.337 4.784,3.337 2.573,3.337 0.804,2.09 0,0 M 14.354,-4.062 H -0.322 c 0.603,-3.055 3.095,-4.18 5.267,-4.18 2.734,0 3.9,1.688 3.9,1.688 h 5.066 c -1.527,-4.02 -5.186,-6.232 -9.127,-6.232 -5.428,0 -10.172,4.141 -10.172,10.414 0,6.232 4.704,10.092 10.011,10.092 5.147,0 10.374,-3.579 9.731,-11.782" /></g><g
           transform="translate(572.8677,67.6891)"
           id="g114"><path
             id="path116"
             style="fill:#191919;fill-opacity:1;fill-rule:nonzero;stroke:none"
             d="m 0,0 v -10.896 h -5.348 v 9.689 c 0,0.684 0.483,5.75 -3.378,5.951 -1.889,0.121 -5.266,-0.925 -5.266,-6.192 v -9.448 H -19.3 V 9.207 h 4.102 l 0.682,-2.453 h 0.684 c 0.845,1.006 2.734,2.654 6.112,2.654 C -2.533,9.408 0,5.548 0,0" /></g><g
           transform="translate(586.4986,56.5914)"
           id="g118"><path
             id="path120"
             style="fill:#191919;fill-opacity:1;fill-rule:nonzero;stroke:none"
             d="m 0,0 c -5.589,0 -10.172,4.303 -10.172,10.213 0,5.991 4.744,10.293 10.373,10.293 4.584,0 8.484,-2.855 9.61,-7.56 H 4.343 c -0.845,1.649 -2.332,2.695 -4.263,2.695 -2.814,0 -5.065,-2.252 -5.065,-5.388 0,-3.136 2.251,-5.388 5.065,-5.388 1.81,0 3.217,0.925 4.102,2.412 H 9.69 C 8.403,2.493 4.262,0 0,0" /></g><g
           transform="translate(604.3541,69.3775)"
           id="g122"><path
             id="path124"
             style="fill:#191919;fill-opacity:1;fill-rule:nonzero;stroke:none"
             d="M 0,0 H 9.046 C 8.443,2.372 6.795,3.337 4.784,3.337 2.573,3.337 0.804,2.09 0,0 M 14.354,-4.062 H -0.322 c 0.603,-3.055 3.095,-4.18 5.267,-4.18 2.734,0 3.9,1.688 3.9,1.688 h 5.066 c -1.527,-4.02 -5.186,-6.232 -9.127,-6.232 -5.428,0 -10.172,4.141 -10.172,10.414 0,6.232 4.704,10.092 10.011,10.092 5.147,0 10.374,-3.579 9.731,-11.782" /></g><g
           transform="translate(629.688,72.8351)"
           id="g126"><path
             id="path128"
             style="fill:#191919;fill-opacity:1;fill-rule:nonzero;stroke:none"
             d="m 0,0 c -1.688,0 -2.412,-0.844 -2.412,-1.688 0,-1.368 1.809,-1.77 3.016,-2.011 3.578,-0.763 7.197,-1.849 7.197,-6.111 0,-4.142 -3.418,-6.434 -7.56,-6.434 -4.623,0 -8.202,2.815 -8.443,7.077 h 4.945 c 0.121,-1.207 0.925,-2.774 3.378,-2.774 2.051,0 2.533,1.085 2.533,1.93 0,1.487 -1.407,1.929 -2.774,2.251 -2.372,0.523 -7.479,1.488 -7.479,6.072 0,3.939 3.78,5.95 7.68,5.95 4.503,0 7.479,-2.734 7.72,-6.112 H 2.855 C 2.694,-1.166 2.051,0 0,0" /></g><g
           transform="translate(319.8184,30.9185)"
           id="g130"><path
             id="path132"
             style="fill:#191919;fill-opacity:1;fill-rule:nonzero;stroke:none"
             d="m 0,0 h 4.423 c 2.291,0 3.819,1.77 3.819,4.102 0,2.332 -1.568,3.699 -3.819,3.699 H 0 Z M 9.328,-15.318 3.337,-4.985 H 0 v -10.333 h -5.106 v 28.144 h 9.931 c 4.624,0 8.724,-3.096 8.724,-8.644 0,-3.86 -2.171,-6.795 -5.065,-8.203 l 6.795,-11.297 z" /></g><g
           transform="translate(341.2916,28.1852)"
           id="g134"><path
             id="path136"
             style="fill:#191919;fill-opacity:1;fill-rule:nonzero;stroke:none"
             d="M 0,0 H 9.046 C 8.443,2.372 6.795,3.337 4.784,3.337 2.573,3.337 0.804,2.091 0,0 M 14.354,-4.062 H -0.322 c 0.603,-3.055 3.095,-4.18 5.267,-4.18 2.734,0 3.9,1.688 3.9,1.688 h 5.066 c -1.527,-4.02 -5.186,-6.232 -9.127,-6.232 -5.428,0 -10.172,4.141 -10.172,10.414 0,6.231 4.704,10.092 10.011,10.092 5.147,0 10.374,-3.579 9.731,-11.782" /></g><g
           transform="translate(366.6236,31.6432)"
           id="g138"><path
             id="path140"
             style="fill:#191919;fill-opacity:1;fill-rule:nonzero;stroke:none"
             d="m 0,0 c -1.688,0 -2.412,-0.845 -2.412,-1.689 0,-1.367 1.809,-1.769 3.016,-2.01 3.578,-0.765 7.197,-1.85 7.197,-6.112 0,-4.141 -3.418,-6.433 -7.56,-6.433 -4.623,0 -8.202,2.814 -8.443,7.076 h 4.945 c 0.121,-1.206 0.925,-2.773 3.378,-2.773 2.051,0 2.533,1.085 2.533,1.929 0,1.488 -1.407,1.93 -2.774,2.251 -2.372,0.524 -7.479,1.489 -7.479,6.072 0,3.94 3.78,5.951 7.68,5.951 4.503,0 7.479,-2.735 7.72,-6.112 H 2.855 C 2.694,-1.166 2.051,0 0,0" /></g><g
           transform="translate(382.3082,28.1852)"
           id="g142"><path
             id="path144"
             style="fill:#191919;fill-opacity:1;fill-rule:nonzero;stroke:none"
             d="M 0,0 H 9.046 C 8.443,2.372 6.795,3.337 4.784,3.337 2.573,3.337 0.804,2.091 0,0 M 14.354,-4.062 H -0.322 c 0.603,-3.055 3.095,-4.18 5.267,-4.18 2.734,0 3.9,1.688 3.9,1.688 h 5.066 c -1.527,-4.02 -5.186,-6.232 -9.127,-6.232 -5.428,0 -10.172,4.141 -10.172,10.414 0,6.231 4.704,10.092 10.011,10.092 5.147,0 10.374,-3.579 9.731,-11.782" /></g><g
           transform="translate(411.6617,24.0435)"
           id="g146"><path
             id="path148"
             style="fill:#191919;fill-opacity:1;fill-rule:nonzero;stroke:none"
             d="M 0,0 V 0.402 C -3.658,0 -7.277,-0.442 -7.277,-2.533 -7.277,-5.589 -0.321,-5.348 0,0 m 7.318,-4.583 v -3.86 H 6.111 c -2.331,0 -3.98,0.844 -4.663,2.573 -1.207,-1.649 -3.217,-2.775 -6.353,-2.775 -4.543,0 -7.438,2.333 -7.438,5.952 0,6.271 8.564,6.835 12.424,7.036 C 0,6.675 -1.286,7.519 -3.337,7.519 -6.191,7.519 -6.393,5.79 -6.393,5.79 h -5.025 c 0.361,3.578 3.297,6.071 8.202,6.071 4.784,0 8.161,-2.372 8.161,-8.202 v -5.347 c 0,-2.333 0.845,-2.895 2.373,-2.895" /></g><g
           transform="translate(434.8238,35.9049)"
           id="g150"><path
             id="path152"
             style="fill:#191919;fill-opacity:1;fill-rule:nonzero;stroke:none"
             d="m 0,0 v -5.146 c -0.402,0.08 -1.086,0.16 -1.77,0.16 -2.814,0 -5.749,-1.448 -5.749,-5.147 v -10.172 h -5.347 v 20.104 h 4.101 l 0.724,-2.212 h 0.643 C -6.514,-1.528 -4.543,0 -1.246,0 Z" /></g><g
           transform="translate(446.2037,15.399)"
           id="g154"><path
             id="path156"
             style="fill:#191919;fill-opacity:1;fill-rule:nonzero;stroke:none"
             d="m 0,0 c -5.589,0 -10.172,4.303 -10.172,10.213 0,5.99 4.744,10.293 10.373,10.293 4.584,0 8.484,-2.855 9.61,-7.56 H 4.343 c -0.845,1.65 -2.332,2.695 -4.263,2.695 -2.814,0 -5.065,-2.252 -5.065,-5.388 0,-3.136 2.251,-5.388 5.065,-5.388 1.81,0 3.217,0.925 4.102,2.412 H 9.69 C 8.403,2.493 4.262,0 0,0" /></g><g
           transform="translate(478.4937,26.4967)"
           id="g158"><path
             id="path160"
             style="fill:#191919;fill-opacity:1;fill-rule:nonzero;stroke:none"
             d="m 0,0 v -10.896 h -5.388 v 9.689 c 0,1.971 0.323,5.951 -3.297,5.951 -1.768,0 -5.186,-0.925 -5.186,-6.192 v -9.448 h -5.388 V 17.65 h 5.107 V 7.116 h 0.683 c 0.965,1.005 2.815,2.292 5.79,2.292 C -2.492,9.408 0,5.548 0,0" /></g><g
           transform="translate(515.5679,24.0435)"
           id="g162"><path
             id="path164"
             style="fill:#191919;fill-opacity:1;fill-rule:nonzero;stroke:none"
             d="m 0,0 c -1.608,-5.388 -6.111,-8.645 -11.539,-8.645 -7.358,0 -12.705,6.032 -12.705,14.274 0,8.242 5.307,14.273 12.665,14.273 5.388,0 9.971,-3.256 11.579,-8.644 h -6.071 c -1.045,2.252 -2.935,3.337 -5.428,3.337 -4.584,0 -7.197,-3.739 -7.197,-8.966 0,-5.227 2.654,-8.966 7.277,-8.966 2.493,0 4.303,1.085 5.348,3.337 z" /></g><g
           transform="translate(533.0601,25.6519)"
           id="g166"><path
             id="path168"
             style="fill:#191919;fill-opacity:1;fill-rule:nonzero;stroke:none"
             d="m 0,0 c 0,3.136 -1.85,5.589 -4.905,5.589 -3.056,0 -5.107,-2.453 -5.107,-5.589 0,-3.136 2.051,-5.589 5.107,-5.589 C -1.85,-5.589 0,-3.136 0,0 m -15.278,-0.04 c 0,6.433 4.985,10.293 10.373,10.293 5.427,0 10.172,-3.9 10.172,-10.213 0,-6.393 -4.906,-10.293 -10.333,-10.293 -5.468,0 -10.212,3.9 -10.212,10.213" /></g><g
           transform="translate(561.0084,35.7037)"
           id="g170"><path
             id="path172"
             style="fill:#191919;fill-opacity:1;fill-rule:nonzero;stroke:none"
             d="m 0,0 v -20.104 h -4.021 l -0.723,2.252 h -0.523 c -0.804,-1.005 -2.573,-2.453 -5.87,-2.453 -5.347,0 -8.082,3.78 -8.082,9.409 V 0 h 5.468 v -9.689 c 0,-2.494 0.201,-5.952 3.659,-5.952 1.77,0 4.664,0.925 4.664,6.193 l 0,9.448 z" /></g><g
           transform="translate(585.0552,26.4967)"
           id="g174"><path
             id="path176"
             style="fill:#191919;fill-opacity:1;fill-rule:nonzero;stroke:none"
             d="m 0,0 v -10.896 h -5.348 v 9.689 c 0,0.684 0.483,5.75 -3.378,5.951 -1.889,0.12 -5.266,-0.925 -5.266,-6.192 v -9.448 H -19.3 V 9.207 h 4.102 l 0.682,-2.453 h 0.684 c 0.845,1.006 2.734,2.654 6.112,2.654 C -2.533,9.408 0,5.548 0,0" /></g><g
           transform="translate(598.6871,15.399)"
           id="g178"><path
             id="path180"
             style="fill:#191919;fill-opacity:1;fill-rule:nonzero;stroke:none"
             d="m 0,0 c -5.589,0 -10.172,4.303 -10.172,10.213 0,5.99 4.744,10.293 10.373,10.293 4.584,0 8.484,-2.855 9.61,-7.56 H 4.343 c -0.845,1.65 -2.332,2.695 -4.263,2.695 -2.814,0 -5.065,-2.252 -5.065,-5.388 0,-3.136 2.251,-5.388 5.065,-5.388 1.81,0 3.217,0.925 4.102,2.412 H 9.689 C 8.403,2.493 4.262,0 0,0" /></g><path
           id="path182"
           style="fill:#191919;fill-opacity:1;fill-rule:nonzero;stroke:none"
           d="m 617.628,15.6 h -5.146 v 20.104 h 5.146 z m -6.032,25.733 c 0,1.929 1.569,3.418 3.458,3.418 1.85,0 3.377,-1.489 3.377,-3.418 0,-1.81 -1.527,-3.377 -3.377,-3.377 -1.889,0 -3.458,1.567 -3.458,3.377" /><path
           id="path184"
           style="fill:#191919;fill-opacity:1;fill-rule:nonzero;stroke:none"
           d="m 627.278,15.6 h -5.227 v 28.547 h 5.227 z" /><path
           id="path186"
           style="fill:#191919;fill-opacity:1;fill-rule:nonzero;stroke:none"
           d="M 141.732,0 H 0 v 141.732 h 141.732 z" /><g
           transform="translate(109.6084,70.8663)"
           id="g188"><path
             id="path190"
             style="fill:#f4cf3a;fill-opacity:1;fill-rule:nonzero;stroke:none"
             d="m 0,0 h -22.216 v 23.724 z m -19.371,-44.105 h -19.371 v -7.745 l -13.635,17.869 c 10.381,1.911 15.742,7.279 15.742,16.627 0,2.307 -0.329,4.365 -0.977,6.19 h 18.241 z m -58.114,32.941 h 15.121 c 6.216,0 8.735,-2.409 8.735,-6.19 0,-3.782 -2.519,-6.269 -8.735,-6.269 h -15.121 z m 38.743,28.072 V -8.733 c -3.519,5.941 -11.612,8.701 -23.622,8.731 10.717,1.088 20.625,6.871 23.622,16.91 m 55.268,38.36 H 0 L -22.216,31.61 V 55.268 H -54.32 V 23.862 c 0,-6.724 -4.978,-10.627 -11.582,-10.627 -6.604,0 -11.583,3.903 -11.583,10.627 V 55.268 H -94.011 V 23.622 C -94.011,9.449 -82.568,1.318 -69.66,0 h -24.351 v -55.268 h 16.526 v 20.482 h 7.219 l 15.271,-20.482 h 71.521 v 11.163 H -2.845 v 32.941 H 16.526 V 3.417 L -7.162,27.672 16.526,51.85 Z" /></g><path
           id="path192"
           style="fill:#191919;fill-opacity:0.5;fill-rule:nonzero;stroke:none"
           d="M 283.464,141.73 H 205.112 V 36.657 h 78.352 z" /><g
           transform="translate(205.1124,36.6568)"
           id="g194"><path
             id="path196"
             style="fill:#191919;fill-opacity:0.3;fill-rule:nonzero;stroke:none"
             d="m 0,0 v 105.073 17.762 H -63.38 V 105.073 -36.657 H 78.352 V 0 Z" /></g></g></g></g></svg>