<svg xmlns="http://www.w3.org/2000/svg" viewBox="0 0 250.093 50.107">
<g fill="#191919" transform="scale(0.65)"><path d="M98.42 39.447c2.584.454 4.715 1.904 6.346 4.352 1.768-2.448 2.72-6.03 2.72-10.653 0-9.203-3.898-14.371-9.927-14.371-6.03 0-9.929 5.168-9.929 14.37 0 9.204 3.9 14.37 9.929 14.37 1.949 0 3.717-.544 5.168-1.63-1.406-2.403-2.448-3.218-4.307-3.492zm13.238 12.785c-2.856 0-5.94-1.045-7.662-4.125-1.814 1.224-3.99 1.856-6.437 1.856-8.206 0-12.921-7.161-12.921-16.817 0-9.657 4.715-16.82 12.92-16.82 8.206 0 12.92 7.163 12.92 16.82 0 5.53-1.54 10.245-4.442 13.237 1.406 2.448 2.766 3.127 5.622 3.127v2.722M130.56 25.937V49.51h-2.72v-3.716c-2.538 2.629-4.623 4.17-8.069 4.17-4.896 0-6.981-2.81-6.981-7.933V25.937h2.72V41.76c0 3.899 1.18 6.03 4.805 6.03 2.902 0 4.534-1.768 7.526-4.49V25.937h2.72M149.147 35.638c-.543-4.85-2.674-7.932-6.799-7.978-4.807-.045-6.845 4.85-6.892 7.978zm-13.691 2.177c0 5.349 2.221 9.974 7.572 9.974 3.036 0 4.532-1.043 6.89-4.76l2.222 1.178c-2.539 4.17-4.85 5.756-9.339 5.756-6.165 0-10.065-3.942-10.065-12.24 0-7.299 3.717-12.239 9.703-12.239 6.392 0 9.428 5.031 9.428 12.33h-16.411M170.453 35.638c-.542-4.85-2.674-7.932-6.8-7.978-4.804-.045-6.845 4.85-6.89 7.978zm-13.69 2.177c0 5.349 2.221 9.974 7.57 9.974 3.038 0 4.534-1.043 6.891-4.76l2.221 1.178c-2.537 4.17-4.85 5.756-9.338 5.756-6.164 0-10.064-3.942-10.064-12.24 0-7.299 3.717-12.239 9.702-12.239 6.392 0 9.43 5.031 9.43 12.33h-16.412M175.623 49.51V25.937h2.718v3.718c2.539-2.629 4.626-4.17 8.071-4.17 4.896 0 6.981 2.81 6.981 7.932V49.51h-2.721V33.69c0-3.898-1.177-6.03-4.805-6.03-2.9 0-4.534 1.767-7.526 4.488V49.51h-2.718M207.445 49.51V16.78h5.259l9.023 27.745h.089l9.067-27.745h5.258v32.73h-2.99V19.23h-.091l-9.839 30.281h-2.856L210.53 19.23h-.092V49.51h-2.992M253.188 36.182c-10.79 2.358-12.241 4.58-12.241 7.57 0 2.586 1.768 4.037 4.216 4.037 2.538 0 5.666-1.497 8.025-3.898zm.453 13.328l-.362-2.855c-2.812 2.221-4.943 3.308-8.57 3.308-3.672 0-6.482-2.265-6.482-6.164 0-6.437 5.258-7.617 15.096-9.791v-1.633c0-3.128-1.359-4.715-5.395-4.715-2.81 0-5.123 1.542-6.844 4.262l-1.815-1.089c2.04-3.807 4.942-5.349 8.75-5.349 5.349 0 7.888 2.176 7.888 7.39v12.33c0 1.179.09 2.72.362 4.306h-2.628M258.717 49.51V25.937h2.72v4.487h.092c1.268-2.9 3.807-4.94 6.799-4.94h1.224v2.63h-1.224c-2.992 0-6.89 3.534-6.89 8.068V49.51h-2.72M280.524 45.113h.09l6.573-19.176h2.9l-8.794 25.25c-1.586 4.625-3.262 6.664-7.525 6.664-1.179 0-1.904-.09-2.539-.27v-2.222c.816.091 1.678.318 2.72.318 1.904 0 3.99-1.677 5.303-6.529l-8.204-23.21h2.992l6.484 19.175M88.433 59.417v9.773c0 1.336.58 2.034 1.877 2.034 1.297 0 1.897-.698 1.897-2.034v-9.773h2.67v9.794c0 3.075-1.818 4.372-4.567 4.372-2.747 0-4.547-1.297-4.547-4.372v-9.794h2.67M96.426 73.39V62.863h2.36v1.2c.891-.773 1.724-1.393 2.73-1.393 1.49 0 2.265.755 2.265 2.708v8.014h-2.44v-7.743c0-.695-.232-1.161-.889-1.161-.504 0-1.065.484-1.587.95v7.954h-2.439M107.69 62.862V73.39h-2.438V62.86zm-2.438-1.819v-2.207h2.438v2.207h-2.438M112.857 69.635h.039l1.606-6.773h2.439l-2.865 10.529h-2.4l-2.863-10.53h2.438l1.606 6.774M122.476 66.733v-.58c0-.93-.445-1.51-1.432-1.51-.987 0-1.433.58-1.433 1.51v.58zm-2.865 1.974V70.1c0 1.045.62 1.508 1.433 1.508 1.025 0 1.432-.656 1.432-1.47h2.438c-.116 2.168-1.412 3.444-3.87 3.444-2.323 0-3.872-1.43-3.872-3.734v-3.445c0-2.303 1.55-3.735 3.872-3.735 2.264 0 3.87 1.432 3.87 3.58v2.458h-5.303M126.269 73.39V62.863h2.38v1.393h.039c.561-1.044 1.297-1.586 2.516-1.586V65.3c-.407-.115-.87-.27-1.296-.27-.794 0-1.2.6-1.2 1.162v7.199h-2.44M137.165 66.075c-.329-.968-.948-1.432-1.684-1.432-.561 0-.986.406-.986.948 0 1.625 4.76 1.664 4.76 4.8 0 2.09-1.471 3.192-3.503 3.192-1.47 0-2.787-.367-3.968-3l2.188-.599c.212.987.812 1.625 1.78 1.625.736 0 1.18-.348 1.18-.928 0-2.012-4.76-1.529-4.76-5.072 0-1.992 1.607-2.94 3.33-2.94 1.818 0 3.075 1.044 3.675 2.631l-2.012.775M142.7 62.862V73.39h-2.439V62.86zm-2.439-1.819v-2.207h2.439v2.207h-2.439M143.9 65.3v-1.973h.967v-2.864h2.44v2.864h1.566V65.3h-1.566v5.381c0 .522.445.775 1.102.775.175 0 .33 0 .484-.021v2.052c-.465.078-.929.096-1.393.096-1.588 0-2.633-.58-2.633-2.088V65.3h-.967M150.17 74.938c.233.038.466.038.715.038 1.066 0 1.762-.927 1.762-1.393 0-.618-.194-1.334-.444-2.225l-2.44-8.496h2.478l1.644 6.968h.039l1.53-6.968h2.477l-2.806 10.49c-.756 2.845-1.742 3.755-4.181 3.755-.232 0-.503-.02-.775-.04v-2.129M165.188 70.216c0 .814.58 1.24 1.432 1.24s1.432-.426 1.432-1.24v-4.18c0-.812-.58-1.24-1.432-1.24s-1.432.428-1.432 1.24zm-2.437-3.56c0-2.786 1.432-3.987 3.869-3.987 2.44 0 3.87 1.2 3.87 3.987v2.94c0 2.788-1.43 3.987-3.87 3.987-2.437 0-3.87-1.2-3.87-3.987v-2.94M176.297 61.353h-.697c-.579 0-.832.368-.832.89v1.084h1.452V65.3h-1.452v8.09h-2.437V65.3h-1.104v-1.973h1.104V62.32c0-2.437 1.025-3.096 2.805-3.096.348 0 .755.057 1.161.115v2.014M182.065 73.39V59.418h2.671V71.03h4.295v2.36h-6.966M192.38 70.216c0 .814.581 1.24 1.432 1.24.852 0 1.433-.426 1.433-1.24v-4.18c0-.812-.581-1.24-1.433-1.24-.85 0-1.432.428-1.432 1.24zm-2.439-3.56c0-2.786 1.432-3.987 3.871-3.987s3.87 1.2 3.87 3.987v2.94c0 2.788-1.431 3.987-3.87 3.987s-3.87-1.2-3.87-3.987v-2.94M199.232 73.39V62.863h2.36v1.2c.89-.773 1.723-1.393 2.728-1.393 1.49 0 2.265.755 2.265 2.708v8.014h-2.44v-7.743c0-.695-.23-1.161-.889-1.161-.504 0-1.063.484-1.587.95v7.954h-2.437M213.05 65.242c-.485-.52-.93-.755-1.471-.755-.659 0-1.2.427-1.2 2.517v2.246c0 2.088.541 2.516 1.2 2.516.541 0 .986-.234 1.47-.756zm.193 8.149v-1.278h-.039c-.425.658-1.508 1.47-2.593 1.47-1.898 0-2.671-1.47-2.671-4.18V66.85c0-2.708.773-4.18 2.67-4.18.658 0 1.278.31 2.44 1.162v-4.414h2.438V73.39h-2.245M219.088 70.216c0 .814.581 1.24 1.433 1.24.851 0 1.431-.426 1.431-1.24v-4.18c0-.812-.58-1.24-1.43-1.24-.853 0-1.434.428-1.434 1.24zm-2.44-3.56c0-2.786 1.433-3.987 3.873-3.987 2.438 0 3.87 1.2 3.87 3.987v2.94c0 2.788-1.432 3.987-3.87 3.987-2.44 0-3.873-1.2-3.873-3.987v-2.94M225.939 73.39V62.863h2.361v1.2c.89-.773 1.724-1.393 2.73-1.393 1.489 0 2.263.755 2.263 2.708v8.014h-2.438v-7.743c0-.695-.232-1.161-.891-1.161-.503 0-1.064.484-1.587.95v7.954h-2.438M34.779 48.377c-6.808 0-12.325-6.802-12.325-15.194 0-8.39 5.517-15.194 12.325-15.194 6.808 0 12.327 6.803 12.327 15.194 0 8.392-5.519 15.194-12.327 15.194zm-.14-31.545c-9.179 0-16.62 7.354-16.62 16.426 0 9.07 7.441 16.427 16.62 16.427 9.18 0 16.622-7.357 16.622-16.427 0-9.072-7.441-16.426-16.621-16.426M0 18.013s12.028 8.5 6.552 18.792c0 0 8.094-11.063 10.807 4.5 0 0-2.325-3.526-6.815-2.645-3.924.771-4.41 3.809-4.41 3.809L0 18.013M68.835 18.013s-12.028 8.5-6.552 18.792c0 0-8.093-11.063-10.807 4.5 0 0 2.325-3.526 6.815-2.645 3.923.771 4.41 3.809 4.41 3.809l6.134-24.456"/>
<path d="M19.143 50.56c1.762-.623 3.421-1.164 5.58-1.987-.84-.48-1.953-1.412-2.754-2.096-2.125.762-4.089 1.524-5.317 1.944-1.244.424-5.312 1.368-6.79-2.624-1.082-2.927 1-4.792 3.008-4.792.751 0 1.517.287 1.513.386a1.86 1.86 0 101.856 1.862c0-.806-.411-1.423-1.023-1.891-.827-.573-1.98-.913-3.073-.913-2.448 0-4.58 2.152-4.927 4.646-.394 2.827 2.706 8.72 11.927 5.465M9.539 55.289c-.37-1.294 1.042-2.353 3.138-2.353h44.317c2.095 0 3.509 1.059 3.139 2.353-.371 1.294-2.384 2.226-4.474 2.07l-17.072-1.265c-2.09-.157-5.512-.157-7.603 0L14.011 57.36c-2.09.156-4.104-.776-4.472-2.07M37.332 15.224c-1.778-2.581-.725-4.195.481-4.188 1.915.012 2.616 1.091 2.604 2.822 1.027-.597 1.98-2.163 1.99-3.634.01-1.467-1.137-2.838-2.604-2.847-1.795-.012-2.717.55-3.542 1.495.138-.295.284-.581.429-.859.31-.605.673-1.342.669-1.997-.005-.786-.377-1.65-.907-2.59-.504-.915-1.22-2.275-1.7-3.426-.465 1.158-1.164 2.525-1.657 3.446-.52.947-.881 1.815-.877 2.602.005.655.376 1.386.694 1.988.153.281.303.572.447.872-.832-.967-1.754-1.543-3.571-1.531-1.468.009-2.614 1.38-2.604 2.847.008 1.47.962 3.037 1.988 3.634-.01-1.73.69-2.81 2.605-2.822 1.206-.007 2.248 1.457.369 4.188 2.053-.502 3.207-.426 5.186 0M61.679 45.336c-.348-2.492-2.478-4.646-4.926-4.646-1.094 0-2.247.339-3.073.911-.612.47-1.024 1.085-1.024 1.891a1.86 1.86 0 101.855-1.86c-.004-.1.764-.387 1.515-.387 2.008 0 4.089 1.864 3.005 4.791-1.476 3.994-5.544 3.05-6.788 2.625-1.228-.419-6.774-2.534-8.899-3.296l-.115.097c-5.07-1.843-5.896-2.138-8.315-2.64-7.793-1.616-8.334 3.555-8.334 3.555 0 .18.661-2.286 5.823-1.757 2.117.214 3.372.794 8.245 2.804-.018.01-.04.026-.057.037 2.161.823 7.4 2.719 9.162 3.34 9.22 3.254 12.318-2.64 11.926-5.465"/>
</g></svg>